<?xml version="1.0" encoding="UTF-8"?>
<svg id="Calque_2" data-name="Calque 2" xmlns="http://www.w3.org/2000/svg" xmlns:xlink="http://www.w3.org/1999/xlink" viewBox="0 0 268.83 268.83">
  <defs>
    <style>
      .cls-1 {
        fill: #fff;
      }

      .cls-1, .cls-2 {
        stroke-width: 0px;
      }

      .cls-2 {
        fill: url(#Dégradé_sans_nom_6);
      }
    </style>
    <linearGradient id="Dégradé_sans_nom_6" data-name="Dégradé sans nom 6" x1="-47.32" y1="367.17" x2="221.51" y2="367.17" gradientTransform="translate(455.63 332.46) rotate(135)" gradientUnits="userSpaceOnUse">
      <stop offset="0" stop-color="#3e6db3"/>
      <stop offset=".15" stop-color="#4767ae"/>
      <stop offset=".4" stop-color="#6157a3"/>
      <stop offset=".72" stop-color="#8a3f91"/>
      <stop offset="1" stop-color="#b42680"/>
    </linearGradient>
  </defs>
  <g id="Calque_1-2" data-name="Calque 1">
    <g>
      <circle class="cls-2" cx="134.42" cy="134.42" r="134.42"/>
      <path class="cls-1" d="M224.45,34.6C204.93,16.97,181.49,6.08,157.12,1.92v47.71c-7.25-1.89-14.86-2.89-22.71-2.89h0c-49.72,0-90.03,40.31-90.03,90.03h0c0,.4.03.8.03,1.2,0,.2-.03.4-.03.6v95.66c19.52,17.63,42.96,28.53,67.33,32.68v-43c7.25,1.89,14.86,2.89,22.71,2.89h0c49.72,0,90.03-40.31,90.03-90.03h0c0-1.41-.04-2.81-.11-4.21.07-.59.11-1.19.11-1.8V34.6ZM168.42,172.35h-73v-.16c-9.5-1.25-16.88-10.48-16.88-21.71,0-12.07,8.54-21.86,19.07-21.86,1.53,0,3.01.23,4.44.62-.2-1.26-.33-2.54-.33-3.86,0-13.36,10.48-24.19,23.42-24.19,9.48,0,17.62,5.82,21.3,14.19,2.12-.89,4.41-1.4,6.82-1.4,10.53,0,19.07,9.34,19.07,20.85,0,.11-.01.21-.01.32,10.21,1.58,17.95,9.23,17.95,18.44,0,10.36-9.79,18.75-21.86,18.75Z"/>
    </g>
  </g>
</svg>